<mxfile host="app.diagrams.net" agent="Mozilla/5.0 (X11; Ubuntu; Linux x86_64; rv:129.0) Gecko/20100101 Firefox/129.0" version="24.7.7">
  <diagram name="PÃ¡gina-1" id="bTVbce5UXaawZTKoMy5Q">
    <mxGraphModel dx="1002" dy="579" grid="1" gridSize="10" guides="1" tooltips="1" connect="1" arrows="1" fold="1" page="1" pageScale="1" pageWidth="827" pageHeight="1169" math="0" shadow="0">
      <root>
        <mxCell id="0" />
        <mxCell id="1" parent="0" />
        <mxCell id="QzpNQK9qibOXROxECk2D-12" style="edgeStyle=orthogonalEdgeStyle;rounded=0;orthogonalLoop=1;jettySize=auto;html=1;" edge="1" parent="1" target="QzpNQK9qibOXROxECk2D-7">
          <mxGeometry relative="1" as="geometry">
            <mxPoint x="180" y="100" as="sourcePoint" />
            <mxPoint x="235" y="580" as="targetPoint" />
            <Array as="points">
              <mxPoint x="200" y="100" />
              <mxPoint x="200" y="700" />
            </Array>
          </mxGeometry>
        </mxCell>
        <mxCell id="QzpNQK9qibOXROxECk2D-1" value="GeneSys" style="shape=folder;fontStyle=1;spacingTop=10;tabWidth=40;tabHeight=14;tabPosition=left;html=1;whiteSpace=wrap;" vertex="1" parent="1">
          <mxGeometry x="160" y="80" width="70" height="50" as="geometry" />
        </mxCell>
        <mxCell id="QzpNQK9qibOXROxECk2D-2" value="genesys.kv" style="sketch=0;outlineConnect=0;fontColor=#232F3E;gradientColor=none;strokeColor=#232F3E;fillColor=#ffffff;dashed=0;verticalLabelPosition=bottom;verticalAlign=top;align=center;html=1;fontSize=12;fontStyle=0;aspect=fixed;shape=mxgraph.aws4.resourceIcon;resIcon=mxgraph.aws4.archive;" vertex="1" parent="1">
          <mxGeometry x="440" y="90" width="60" height="60" as="geometry" />
        </mxCell>
        <mxCell id="QzpNQK9qibOXROxECk2D-13" style="edgeStyle=orthogonalEdgeStyle;rounded=0;orthogonalLoop=1;jettySize=auto;html=1;" edge="1" parent="1" source="QzpNQK9qibOXROxECk2D-3" target="QzpNQK9qibOXROxECk2D-2">
          <mxGeometry relative="1" as="geometry" />
        </mxCell>
        <mxCell id="QzpNQK9qibOXROxECk2D-3" value="&lt;div&gt;kv_files&lt;/div&gt;" style="shape=folder;fontStyle=1;spacingTop=10;tabWidth=40;tabHeight=14;tabPosition=left;html=1;whiteSpace=wrap;" vertex="1" parent="1">
          <mxGeometry x="280" y="150" width="70" height="50" as="geometry" />
        </mxCell>
        <mxCell id="QzpNQK9qibOXROxECk2D-16" style="edgeStyle=orthogonalEdgeStyle;rounded=0;orthogonalLoop=1;jettySize=auto;html=1;" edge="1" parent="1" source="QzpNQK9qibOXROxECk2D-4" target="QzpNQK9qibOXROxECk2D-14">
          <mxGeometry relative="1" as="geometry">
            <Array as="points">
              <mxPoint x="360" y="305" />
              <mxPoint x="360" y="250" />
            </Array>
          </mxGeometry>
        </mxCell>
        <mxCell id="QzpNQK9qibOXROxECk2D-17" style="edgeStyle=orthogonalEdgeStyle;rounded=0;orthogonalLoop=1;jettySize=auto;html=1;" edge="1" parent="1" source="QzpNQK9qibOXROxECk2D-4" target="QzpNQK9qibOXROxECk2D-15">
          <mxGeometry relative="1" as="geometry">
            <Array as="points">
              <mxPoint x="380" y="310" />
              <mxPoint x="380" y="310" />
            </Array>
          </mxGeometry>
        </mxCell>
        <mxCell id="QzpNQK9qibOXROxECk2D-4" value="modules" style="shape=folder;fontStyle=1;spacingTop=10;tabWidth=40;tabHeight=14;tabPosition=left;html=1;whiteSpace=wrap;" vertex="1" parent="1">
          <mxGeometry x="280" y="280" width="70" height="50" as="geometry" />
        </mxCell>
        <mxCell id="QzpNQK9qibOXROxECk2D-36" style="edgeStyle=orthogonalEdgeStyle;rounded=0;orthogonalLoop=1;jettySize=auto;html=1;" edge="1" parent="1" source="QzpNQK9qibOXROxECk2D-5" target="QzpNQK9qibOXROxECk2D-34">
          <mxGeometry relative="1" as="geometry" />
        </mxCell>
        <mxCell id="QzpNQK9qibOXROxECk2D-37" style="edgeStyle=orthogonalEdgeStyle;rounded=0;orthogonalLoop=1;jettySize=auto;html=1;" edge="1" parent="1" source="QzpNQK9qibOXROxECk2D-5" target="QzpNQK9qibOXROxECk2D-35">
          <mxGeometry relative="1" as="geometry" />
        </mxCell>
        <mxCell id="QzpNQK9qibOXROxECk2D-5" value="screens" style="shape=folder;fontStyle=1;spacingTop=10;tabWidth=40;tabHeight=14;tabPosition=left;html=1;whiteSpace=wrap;" vertex="1" parent="1">
          <mxGeometry x="280" y="420" width="70" height="50" as="geometry" />
        </mxCell>
        <mxCell id="QzpNQK9qibOXROxECk2D-41" style="edgeStyle=orthogonalEdgeStyle;rounded=0;orthogonalLoop=1;jettySize=auto;html=1;" edge="1" parent="1" source="QzpNQK9qibOXROxECk2D-6" target="QzpNQK9qibOXROxECk2D-38">
          <mxGeometry relative="1" as="geometry" />
        </mxCell>
        <mxCell id="QzpNQK9qibOXROxECk2D-42" style="edgeStyle=orthogonalEdgeStyle;rounded=0;orthogonalLoop=1;jettySize=auto;html=1;" edge="1" parent="1" source="QzpNQK9qibOXROxECk2D-6" target="QzpNQK9qibOXROxECk2D-39">
          <mxGeometry relative="1" as="geometry" />
        </mxCell>
        <mxCell id="QzpNQK9qibOXROxECk2D-45" style="edgeStyle=orthogonalEdgeStyle;rounded=0;orthogonalLoop=1;jettySize=auto;html=1;" edge="1" parent="1" source="QzpNQK9qibOXROxECk2D-6" target="QzpNQK9qibOXROxECk2D-40">
          <mxGeometry relative="1" as="geometry">
            <Array as="points">
              <mxPoint x="400" y="595" />
              <mxPoint x="400" y="720" />
            </Array>
          </mxGeometry>
        </mxCell>
        <mxCell id="QzpNQK9qibOXROxECk2D-6" value="utils" style="shape=folder;fontStyle=1;spacingTop=10;tabWidth=40;tabHeight=14;tabPosition=left;html=1;whiteSpace=wrap;" vertex="1" parent="1">
          <mxGeometry x="280" y="570" width="70" height="50" as="geometry" />
        </mxCell>
        <mxCell id="QzpNQK9qibOXROxECk2D-7" value="&lt;div&gt;main.py&lt;/div&gt;" style="sketch=0;outlineConnect=0;fontColor=#232F3E;gradientColor=none;strokeColor=#232F3E;fillColor=#ffffff;dashed=0;verticalLabelPosition=bottom;verticalAlign=top;align=center;html=1;fontSize=12;fontStyle=0;aspect=fixed;shape=mxgraph.aws4.resourceIcon;resIcon=mxgraph.aws4.archive;" vertex="1" parent="1">
          <mxGeometry x="290" y="670" width="60" height="60" as="geometry" />
        </mxCell>
        <mxCell id="QzpNQK9qibOXROxECk2D-8" style="edgeStyle=orthogonalEdgeStyle;rounded=0;orthogonalLoop=1;jettySize=auto;html=1;entryX=0;entryY=0;entryDx=0;entryDy=32;entryPerimeter=0;" edge="1" parent="1" source="QzpNQK9qibOXROxECk2D-1" target="QzpNQK9qibOXROxECk2D-3">
          <mxGeometry relative="1" as="geometry" />
        </mxCell>
        <mxCell id="QzpNQK9qibOXROxECk2D-9" style="edgeStyle=orthogonalEdgeStyle;rounded=0;orthogonalLoop=1;jettySize=auto;html=1;entryX=0;entryY=0;entryDx=0;entryDy=32;entryPerimeter=0;" edge="1" parent="1" source="QzpNQK9qibOXROxECk2D-1" target="QzpNQK9qibOXROxECk2D-4">
          <mxGeometry relative="1" as="geometry" />
        </mxCell>
        <mxCell id="QzpNQK9qibOXROxECk2D-10" style="edgeStyle=orthogonalEdgeStyle;rounded=0;orthogonalLoop=1;jettySize=auto;html=1;entryX=0;entryY=0;entryDx=0;entryDy=32;entryPerimeter=0;" edge="1" parent="1" source="QzpNQK9qibOXROxECk2D-1" target="QzpNQK9qibOXROxECk2D-5">
          <mxGeometry relative="1" as="geometry" />
        </mxCell>
        <mxCell id="QzpNQK9qibOXROxECk2D-11" style="edgeStyle=orthogonalEdgeStyle;rounded=0;orthogonalLoop=1;jettySize=auto;html=1;entryX=0;entryY=0;entryDx=0;entryDy=32;entryPerimeter=0;" edge="1" parent="1" source="QzpNQK9qibOXROxECk2D-1" target="QzpNQK9qibOXROxECk2D-6">
          <mxGeometry relative="1" as="geometry" />
        </mxCell>
        <mxCell id="QzpNQK9qibOXROxECk2D-26" style="edgeStyle=orthogonalEdgeStyle;rounded=0;orthogonalLoop=1;jettySize=auto;html=1;exitX=0.889;exitY=0.2;exitDx=0;exitDy=0;exitPerimeter=0;" edge="1" parent="1" source="QzpNQK9qibOXROxECk2D-14" target="QzpNQK9qibOXROxECk2D-24">
          <mxGeometry relative="1" as="geometry">
            <Array as="points">
              <mxPoint x="580" y="222" />
              <mxPoint x="580" y="50" />
            </Array>
          </mxGeometry>
        </mxCell>
        <mxCell id="QzpNQK9qibOXROxECk2D-27" style="edgeStyle=orthogonalEdgeStyle;rounded=0;orthogonalLoop=1;jettySize=auto;html=1;" edge="1" parent="1" source="QzpNQK9qibOXROxECk2D-14" target="QzpNQK9qibOXROxECk2D-18">
          <mxGeometry relative="1" as="geometry">
            <Array as="points">
              <mxPoint x="580" y="130" />
            </Array>
          </mxGeometry>
        </mxCell>
        <mxCell id="QzpNQK9qibOXROxECk2D-28" style="edgeStyle=orthogonalEdgeStyle;rounded=0;orthogonalLoop=1;jettySize=auto;html=1;" edge="1" parent="1" source="QzpNQK9qibOXROxECk2D-14" target="QzpNQK9qibOXROxECk2D-19">
          <mxGeometry relative="1" as="geometry" />
        </mxCell>
        <mxCell id="QzpNQK9qibOXROxECk2D-29" style="edgeStyle=orthogonalEdgeStyle;rounded=0;orthogonalLoop=1;jettySize=auto;html=1;" edge="1" parent="1" source="QzpNQK9qibOXROxECk2D-14" target="QzpNQK9qibOXROxECk2D-20">
          <mxGeometry relative="1" as="geometry" />
        </mxCell>
        <mxCell id="QzpNQK9qibOXROxECk2D-30" style="edgeStyle=orthogonalEdgeStyle;rounded=0;orthogonalLoop=1;jettySize=auto;html=1;" edge="1" parent="1" source="QzpNQK9qibOXROxECk2D-14" target="QzpNQK9qibOXROxECk2D-21">
          <mxGeometry relative="1" as="geometry">
            <Array as="points">
              <mxPoint x="580" y="370" />
            </Array>
          </mxGeometry>
        </mxCell>
        <mxCell id="QzpNQK9qibOXROxECk2D-31" style="edgeStyle=orthogonalEdgeStyle;rounded=0;orthogonalLoop=1;jettySize=auto;html=1;" edge="1" parent="1" source="QzpNQK9qibOXROxECk2D-14" target="QzpNQK9qibOXROxECk2D-22">
          <mxGeometry relative="1" as="geometry">
            <Array as="points">
              <mxPoint x="580" y="450" />
            </Array>
          </mxGeometry>
        </mxCell>
        <mxCell id="QzpNQK9qibOXROxECk2D-33" style="edgeStyle=orthogonalEdgeStyle;rounded=0;orthogonalLoop=1;jettySize=auto;html=1;" edge="1" parent="1" source="QzpNQK9qibOXROxECk2D-14" target="QzpNQK9qibOXROxECk2D-23">
          <mxGeometry relative="1" as="geometry">
            <Array as="points">
              <mxPoint x="580" y="530" />
            </Array>
          </mxGeometry>
        </mxCell>
        <mxCell id="QzpNQK9qibOXROxECk2D-14" value="PATRIC_protein_processing" style="shape=folder;fontStyle=1;spacingTop=10;tabWidth=40;tabHeight=14;tabPosition=left;html=1;whiteSpace=wrap;" vertex="1" parent="1">
          <mxGeometry x="400" y="210" width="180" height="60" as="geometry" />
        </mxCell>
        <mxCell id="QzpNQK9qibOXROxECk2D-15" value="baseobjects.py" style="sketch=0;outlineConnect=0;fontColor=#232F3E;gradientColor=none;strokeColor=#232F3E;fillColor=#ffffff;dashed=0;verticalLabelPosition=bottom;verticalAlign=top;align=center;html=1;fontSize=12;fontStyle=0;aspect=fixed;shape=mxgraph.aws4.resourceIcon;resIcon=mxgraph.aws4.archive;" vertex="1" parent="1">
          <mxGeometry x="460" y="280" width="60" height="60" as="geometry" />
        </mxCell>
        <mxCell id="QzpNQK9qibOXROxECk2D-18" value="generate_fasta.py" style="sketch=0;outlineConnect=0;fontColor=#232F3E;gradientColor=none;strokeColor=#232F3E;fillColor=#ffffff;dashed=0;verticalLabelPosition=bottom;verticalAlign=top;align=center;html=1;fontSize=12;fontStyle=0;aspect=fixed;shape=mxgraph.aws4.resourceIcon;resIcon=mxgraph.aws4.archive;" vertex="1" parent="1">
          <mxGeometry x="650" y="90" width="60" height="60" as="geometry" />
        </mxCell>
        <mxCell id="QzpNQK9qibOXROxECk2D-19" value="reduce_sample.py" style="sketch=0;outlineConnect=0;fontColor=#232F3E;gradientColor=none;strokeColor=#232F3E;fillColor=#ffffff;dashed=0;verticalLabelPosition=bottom;verticalAlign=top;align=center;html=1;fontSize=12;fontStyle=0;aspect=fixed;shape=mxgraph.aws4.resourceIcon;resIcon=mxgraph.aws4.archive;" vertex="1" parent="1">
          <mxGeometry x="650" y="170" width="60" height="60" as="geometry" />
        </mxCell>
        <mxCell id="QzpNQK9qibOXROxECk2D-20" value="get30kbupanddown.py" style="sketch=0;outlineConnect=0;fontColor=#232F3E;gradientColor=none;strokeColor=#232F3E;fillColor=#ffffff;dashed=0;verticalLabelPosition=bottom;verticalAlign=top;align=center;html=1;fontSize=12;fontStyle=0;aspect=fixed;shape=mxgraph.aws4.resourceIcon;resIcon=mxgraph.aws4.archive;" vertex="1" parent="1">
          <mxGeometry x="650" y="255" width="60" height="60" as="geometry" />
        </mxCell>
        <mxCell id="QzpNQK9qibOXROxECk2D-21" value="get_codons_from_features.py" style="sketch=0;outlineConnect=0;fontColor=#232F3E;gradientColor=none;strokeColor=#232F3E;fillColor=#ffffff;dashed=0;verticalLabelPosition=bottom;verticalAlign=top;align=center;html=1;fontSize=12;fontStyle=0;aspect=fixed;shape=mxgraph.aws4.resourceIcon;resIcon=mxgraph.aws4.archive;" vertex="1" parent="1">
          <mxGeometry x="650" y="340" width="60" height="60" as="geometry" />
        </mxCell>
        <mxCell id="QzpNQK9qibOXROxECk2D-22" value="get_protein.sh" style="sketch=0;outlineConnect=0;fontColor=#232F3E;gradientColor=none;strokeColor=#232F3E;fillColor=#ffffff;dashed=0;verticalLabelPosition=bottom;verticalAlign=top;align=center;html=1;fontSize=12;fontStyle=0;aspect=fixed;shape=mxgraph.aws4.resourceIcon;resIcon=mxgraph.aws4.archive;" vertex="1" parent="1">
          <mxGeometry x="650" y="420" width="60" height="60" as="geometry" />
        </mxCell>
        <mxCell id="QzpNQK9qibOXROxECk2D-23" value="get_30kilobases_up_and_down.sh" style="sketch=0;outlineConnect=0;fontColor=#232F3E;gradientColor=none;strokeColor=#232F3E;fillColor=#ffffff;dashed=0;verticalLabelPosition=bottom;verticalAlign=top;align=center;html=1;fontSize=12;fontStyle=0;aspect=fixed;shape=mxgraph.aws4.resourceIcon;resIcon=mxgraph.aws4.archive;" vertex="1" parent="1">
          <mxGeometry x="650" y="500" width="60" height="60" as="geometry" />
        </mxCell>
        <mxCell id="QzpNQK9qibOXROxECk2D-24" value="isolate_column.py" style="sketch=0;outlineConnect=0;fontColor=#232F3E;gradientColor=none;strokeColor=#232F3E;fillColor=#ffffff;dashed=0;verticalLabelPosition=bottom;verticalAlign=top;align=center;html=1;fontSize=12;fontStyle=0;aspect=fixed;shape=mxgraph.aws4.resourceIcon;resIcon=mxgraph.aws4.archive;" vertex="1" parent="1">
          <mxGeometry x="650" y="10" width="60" height="60" as="geometry" />
        </mxCell>
        <mxCell id="QzpNQK9qibOXROxECk2D-34" value="genesys.py" style="sketch=0;outlineConnect=0;fontColor=#232F3E;gradientColor=none;strokeColor=#232F3E;fillColor=#ffffff;dashed=0;verticalLabelPosition=bottom;verticalAlign=top;align=center;html=1;fontSize=12;fontStyle=0;aspect=fixed;shape=mxgraph.aws4.resourceIcon;resIcon=mxgraph.aws4.archive;" vertex="1" parent="1">
          <mxGeometry x="460" y="360" width="60" height="60" as="geometry" />
        </mxCell>
        <mxCell id="QzpNQK9qibOXROxECk2D-35" value="patric_protein_processing.py" style="sketch=0;outlineConnect=0;fontColor=#232F3E;gradientColor=none;strokeColor=#232F3E;fillColor=#ffffff;dashed=0;verticalLabelPosition=bottom;verticalAlign=top;align=center;html=1;fontSize=12;fontStyle=0;aspect=fixed;shape=mxgraph.aws4.resourceIcon;resIcon=mxgraph.aws4.archive;" vertex="1" parent="1">
          <mxGeometry x="460" y="440" width="60" height="60" as="geometry" />
        </mxCell>
        <mxCell id="QzpNQK9qibOXROxECk2D-38" value="biopython_utils.py" style="sketch=0;outlineConnect=0;fontColor=#232F3E;gradientColor=none;strokeColor=#232F3E;fillColor=#ffffff;dashed=0;verticalLabelPosition=bottom;verticalAlign=top;align=center;html=1;fontSize=12;fontStyle=0;aspect=fixed;shape=mxgraph.aws4.resourceIcon;resIcon=mxgraph.aws4.archive;" vertex="1" parent="1">
          <mxGeometry x="460" y="525" width="60" height="60" as="geometry" />
        </mxCell>
        <mxCell id="QzpNQK9qibOXROxECk2D-39" value="check_format_utils.py" style="sketch=0;outlineConnect=0;fontColor=#232F3E;gradientColor=none;strokeColor=#232F3E;fillColor=#ffffff;dashed=0;verticalLabelPosition=bottom;verticalAlign=top;align=center;html=1;fontSize=12;fontStyle=0;aspect=fixed;shape=mxgraph.aws4.resourceIcon;resIcon=mxgraph.aws4.archive;" vertex="1" parent="1">
          <mxGeometry x="460" y="610" width="60" height="60" as="geometry" />
        </mxCell>
        <mxCell id="QzpNQK9qibOXROxECk2D-40" value="fasta_processing_utils.py" style="sketch=0;outlineConnect=0;fontColor=#232F3E;gradientColor=none;strokeColor=#232F3E;fillColor=#ffffff;dashed=0;verticalLabelPosition=bottom;verticalAlign=top;align=center;html=1;fontSize=12;fontStyle=0;aspect=fixed;shape=mxgraph.aws4.resourceIcon;resIcon=mxgraph.aws4.archive;" vertex="1" parent="1">
          <mxGeometry x="460" y="690" width="60" height="60" as="geometry" />
        </mxCell>
      </root>
    </mxGraphModel>
  </diagram>
</mxfile>
